<svg id="Layer_1" data-name="Layer 1" xmlns="http://www.w3.org/2000/svg" viewBox="0 0 257.41 128"><defs><style>.cls-1{fill:#009245;}</style></defs><title>kd-logo</title><path class="cls-1" d="M411.3,604V586l13.27-2.82V496.92l-13.27-2.81V476h56.26v18.11l-12.13,2.81v37.81l40.09-39.48.08-.17-14.5-1V476h59.78v18.11l-12,2.55-35.61,34.72,39.21,52.4,13.1,2.2v18H483.82V586l12.84-1h.18l-24.36-33.32-17.05,16.62v14.85L467.56,586v18Z" transform="translate(-411.3 -476)"/><path class="cls-1" d="M549.58,604V586L563,582.72V497.45l-13.45-3.34V476h60q17.31,0,30.68,8a56.29,56.29,0,0,1,20.92,22.25q7.56,14.19,7.56,32.74v2q0,18.54-7.56,32.74A55.9,55.9,0,0,1,640.22,596q-13.37,8-30.68,8Zm44.31-23.38H608q14.58,0,22.15-10.86t7.56-28.7v-2.12q0-17.75-7.56-28.61T608,499.47H593.89Z" transform="translate(-411.3 -476)"/></svg>