<svg id="Layer_1" data-name="Layer 1" xmlns="http://www.w3.org/2000/svg" viewBox="0 0 797.791 87.83"><title>kd-logo-full</title><path d="M560.328,573.207V561.832l8.378-1.775V505.628l-8.378-1.775v-11.43h35.509v11.43l-7.656,1.775v23.858l25.3-24.912.056-.111-9.155-.61v-11.43H642.11v11.43l-7.6,1.609-22.47,21.915,24.745,33.068,8.267,1.387v11.375H606.1V561.832l8.1-.609h.111l-15.369-21.029-10.763,10.487v9.376l7.656,1.775v11.375Z" transform="translate(-560.328 -486.653)"/><path d="M648.713,573.207V561.832l7.046-1.775V526.379l-8.378-1.775v-11.43h27.853v46.883l6.991,1.775v11.375Zm6.492-71.407V486.653h20.029V501.8Z" transform="translate(-560.328 -486.653)"/><path d="M711.353,574.482q-9.433,0-14.343-5.021t-4.91-15.9V526.6h-7.49V513.174h7.49V498.36h19.364v14.814h9.82V526.6h-9.82V553.51q0,2.942,1.331,4.105a5.369,5.369,0,0,0,3.663,1.166,18.075,18.075,0,0,0,2-.111q1-.111,2-.277l1.332,14.537A36.787,36.787,0,0,1,711.353,574.482Z" transform="translate(-560.328 -486.653)"/><path d="M756.128,574.371a28.863,28.863,0,0,1-15.369-3.939,26.085,26.085,0,0,1-9.876-10.819,34.63,34.63,0,0,1-3.44-15.7v-1.277a34.022,34.022,0,0,1,3.579-15.923,26.739,26.739,0,0,1,9.987-10.764,28.281,28.281,0,0,1,14.952-3.884,37.55,37.55,0,0,1,14.731,2.608,42.17,42.17,0,0,1,9.682,5.437l-.333,18.92H765.56l-2.33-10.875a7.179,7.179,0,0,0-2.525-1.553,7.639,7.639,0,0,0-2.635-.61q-6.215,0-8.683,4.05t-2.469,12.594v1.277a25,25,0,0,0,1.415,9.348,10.4,10.4,0,0,0,3.578,4.855,7.9,7.9,0,0,0,4.439,1.443,7.741,7.741,0,0,0,5.409-1.747,11.357,11.357,0,0,0,2.969-5.133H781.04l.222.333a36.065,36.065,0,0,1-4.161,11.9,17.718,17.718,0,0,1-7.851,7.1Q764.228,574.372,756.128,574.371Z" transform="translate(-560.328 -486.653)"/><path d="M787.254,573.207V561.832l7.046-1.775v-60.2l-8.433-1.775v-11.43h27.8v33.955a19.151,19.151,0,0,1,6.658-6.3,18.567,18.567,0,0,1,9.265-2.248,17.4,17.4,0,0,1,13.927,6.186q5.269,6.188,5.271,19.115v22.692l6.991,1.775v11.375H823.6V561.832l5.715-1.775v-22.8q0-5.88-1.97-8.072a7.251,7.251,0,0,0-5.686-2.192q-5.383,0-7.99,3.718v29.35l5.714,1.775v11.375Z" transform="translate(-560.328 -486.653)"/><path d="M888.843,574.371a30.2,30.2,0,0,1-15.4-3.8,26.642,26.642,0,0,1-10.209-10.4,30.419,30.419,0,0,1-3.635-14.925V543.19a38.593,38.593,0,0,1,3.219-16.2,25.1,25.1,0,0,1,9.431-11.013q6.214-3.966,15.258-3.912,12.206,0,18.753,7.019t6.548,20.279V549.4H879.8l-.055.389a11.337,11.337,0,0,0,3.662,6.99q3.05,2.777,8.766,2.775a36.249,36.249,0,0,0,15.091-3.607l4.439,11.762a36.024,36.024,0,0,1-9.876,4.771A41.989,41.989,0,0,1,888.843,574.371ZM879.8,537.365h15.258v-1.443q0-4.827-1.5-7.3t-5.6-2.469q-4.44,0-6.187,3.079a19.5,19.5,0,0,0-2.191,7.851Z" transform="translate(-560.328 -486.653)"/><path d="M918.693,573.207V561.832l6.991-1.775V526.379l-8.323-1.775v-11.43H944.1l.666,8.378a21.865,21.865,0,0,1,7.352-6.991,19.545,19.545,0,0,1,9.9-2.5q8.432,0,13.317,5.715t4.881,18.143v24.135l6.992,1.775v11.375h-32.18V561.832l5.659-1.775v-24.19q0-4.828-1.943-6.853a7.329,7.329,0,0,0-5.547-2.025,9.541,9.541,0,0,0-8.045,3.884v29.184l4.993,1.775v11.375Z" transform="translate(-560.328 -486.653)"/><path d="M990.1,573.207V561.832l8.488-2.053V505.961l-8.488-2.108v-11.43h37.839A36.811,36.811,0,0,1,1047.3,497.5a35.533,35.533,0,0,1,13.2,14.037,43.323,43.323,0,0,1,4.771,20.668v1.275a43.32,43.32,0,0,1-4.771,20.668,35.335,35.335,0,0,1-13.2,14.01,36.971,36.971,0,0,1-19.364,5.049Zm27.963-14.759h8.876q9.211,0,13.983-6.852t4.771-18.116v-1.331q0-11.207-4.771-18.06t-13.983-6.852h-8.876Z" transform="translate(-560.328 -486.653)"/><path d="M1102.121,574.371a30.8,30.8,0,0,1-15.842-3.855,25.428,25.428,0,0,1-10.041-10.764,35.223,35.223,0,0,1-3.468-16.007v-1.11a34.794,34.794,0,0,1,3.468-15.868,25.867,25.867,0,0,1,10.014-10.791,33.855,33.855,0,0,1,31.543-.028,25.76,25.76,0,0,1,9.986,10.764,34.937,34.937,0,0,1,3.467,15.923v1.11a35.1,35.1,0,0,1-3.467,15.951,25.714,25.714,0,0,1-9.986,10.792A30.085,30.085,0,0,1,1102.121,574.371Zm0-14.813q5.326,0,7.545-4.245t2.219-11.568v-1.11q0-7.1-2.246-11.4t-7.629-4.3q-5.382,0-7.574,4.3t-2.192,11.4v1.11q0,7.38,2.192,11.6T1102.121,559.558Z" transform="translate(-560.328 -486.653)"/><path d="M1167.09,574.371a30.79,30.79,0,0,1-15.84-3.855,25.433,25.433,0,0,1-10.043-10.764,35.223,35.223,0,0,1-3.467-16.007v-1.11a34.794,34.794,0,0,1,3.467-15.868,25.865,25.865,0,0,1,10.016-10.791,30.165,30.165,0,0,1,15.756-3.912q9.265,0,15.785,3.884a25.778,25.778,0,0,1,9.988,10.764,34.937,34.937,0,0,1,3.467,15.923v1.11a35.1,35.1,0,0,1-3.467,15.951,25.731,25.731,0,0,1-9.988,10.792A30.077,30.077,0,0,1,1167.09,574.371Zm0-14.813q5.327,0,7.547-4.245t2.218-11.568v-1.11q0-7.1-2.248-11.4t-7.628-4.3q-5.382,0-7.573,4.3t-2.191,11.4v1.11q0,7.38,2.191,11.6T1167.09,559.558Z" transform="translate(-560.328 -486.653)"/><path d="M1225.182,574.371a19.95,19.95,0,0,1-12.123-3.717,23.245,23.245,0,0,1-7.768-10.459,42.229,42.229,0,0,1-2.691-15.728V543.3a45.27,45.27,0,0,1,2.718-16.4,24.816,24.816,0,0,1,7.741-10.93,18.789,18.789,0,0,1,11.9-3.912,16.415,16.415,0,0,1,8.24,1.97,19.477,19.477,0,0,1,6.074,5.521v-19.7l-8.431-1.775v-11.43h27.906v73.4l6.992,1.775v11.375h-23.857l-1.444-7.436A19.512,19.512,0,0,1,1234,572.18,17.065,17.065,0,0,1,1225.182,574.371Zm6.047-14.924a9.368,9.368,0,0,0,8.044-3.773V531.65a8.749,8.749,0,0,0-7.933-4.661,7.319,7.319,0,0,0-7.156,4.494q-2.111,4.494-2.11,11.818v1.166q0,7.157,2,11.068T1231.229,559.447Z" transform="translate(-560.328 -486.653)"/><path d="M1268.291,573.207V561.832l7.1-1.775v-60.2l-8.434-1.775v-11.43h27.908v73.4l7.045,1.775v11.375Z" transform="translate(-560.328 -486.653)"/><path d="M1334.15,574.371a30.2,30.2,0,0,1-15.4-3.8,26.635,26.635,0,0,1-10.209-10.4,30.419,30.419,0,0,1-3.635-14.925V543.19a38.593,38.593,0,0,1,3.219-16.2,25.1,25.1,0,0,1,9.432-11.013q6.213-3.966,15.257-3.912,12.205,0,18.752,7.019t6.549,20.279V549.4h-33.014l-.054.389a11.337,11.337,0,0,0,3.662,6.99q3.05,2.777,8.766,2.775a36.253,36.253,0,0,0,15.091-3.607l4.438,11.762a35.989,35.989,0,0,1-9.875,4.771A41.994,41.994,0,0,1,1334.15,574.371Zm-9.045-37.006h15.258v-1.443q0-4.827-1.5-7.3t-5.6-2.469q-4.438,0-6.186,3.079a19.487,19.487,0,0,0-2.191,7.851Z" transform="translate(-560.328 -486.653)"/></svg>