<svg id="Layer_1" data-name="Layer 1" xmlns="http://www.w3.org/2000/svg" viewBox="0 0 797.791 87.83"><defs><style>.cls-1{fill:#fff;}</style></defs><title>kd-logo-full-white</title><path class="cls-1" d="M561.1,582.639V571.264l8.378-1.775V515.061l-8.378-1.776V501.856h35.51v11.429l-7.657,1.776v23.857l25.3-24.911.056-.112-9.155-.61V501.856h37.729v11.429l-7.6,1.609-22.47,21.916,24.745,33.068,8.267,1.386v11.375H606.878V571.264l8.1-.609h.11l-15.368-21.028-10.764,10.486v9.376l7.657,1.775v11.375Z" transform="translate(-561.104 -496.085)"/><path class="cls-1" d="M649.489,582.639V571.264l7.047-1.775V535.811l-8.378-1.775v-11.43H676.01v46.883L683,571.264v11.375Zm6.492-71.407V496.085H676.01v15.147Z" transform="translate(-561.104 -496.085)"/><path class="cls-1" d="M712.129,583.915q-9.433,0-14.342-5.022T692.876,563V536.033h-7.49V522.606h7.49V507.792H712.24v14.814h9.821v13.427H712.24v26.909q0,2.942,1.332,4.106a5.369,5.369,0,0,0,3.662,1.166,17.835,17.835,0,0,0,2-.112q1-.111,2-.277l1.331,14.537A36.789,36.789,0,0,1,712.129,583.915Z" transform="translate(-561.104 -496.085)"/><path class="cls-1" d="M756.9,583.8a28.86,28.86,0,0,1-15.368-3.939,26.075,26.075,0,0,1-9.876-10.818,34.634,34.634,0,0,1-3.44-15.7v-1.277a34.034,34.034,0,0,1,3.578-15.923,26.73,26.73,0,0,1,9.987-10.763,28.287,28.287,0,0,1,14.953-3.884,37.551,37.551,0,0,1,14.731,2.607,42.159,42.159,0,0,1,9.681,5.438l-.333,18.919H766.336l-2.33-10.874a7.171,7.171,0,0,0-2.525-1.554,7.657,7.657,0,0,0-2.635-.61q-6.215,0-8.683,4.05t-2.469,12.594v1.277a25.018,25.018,0,0,0,1.415,9.348,10.39,10.39,0,0,0,3.579,4.856,7.9,7.9,0,0,0,4.438,1.442,7.742,7.742,0,0,0,5.41-1.747,11.365,11.365,0,0,0,2.968-5.133h16.312l.222.333a36.057,36.057,0,0,1-4.161,11.9,17.7,17.7,0,0,1-7.851,7.1Q765,583.8,756.9,583.8Z" transform="translate(-561.104 -496.085)"/><path class="cls-1" d="M788.03,582.639V571.264l7.047-1.775v-60.2l-8.434-1.775v-11.43h27.8v33.956a19.154,19.154,0,0,1,6.658-6.3,18.578,18.578,0,0,1,9.266-2.247,17.4,17.4,0,0,1,13.927,6.186q5.268,6.188,5.27,19.114v22.692l6.991,1.775v11.375h-32.18V571.264l5.714-1.775v-22.8q0-5.88-1.969-8.073a7.256,7.256,0,0,0-5.687-2.191q-5.383,0-7.99,3.717v29.35l5.715,1.775v11.375Z" transform="translate(-561.104 -496.085)"/><path class="cls-1" d="M889.62,583.8a30.208,30.208,0,0,1-15.4-3.8,26.645,26.645,0,0,1-10.209-10.4,30.417,30.417,0,0,1-3.635-14.924v-2.053a38.6,38.6,0,0,1,3.219-16.2,25.1,25.1,0,0,1,9.432-11.014q6.213-3.966,15.258-3.911,12.2,0,18.753,7.018t6.547,20.279v10.043H880.576l-.056.388a11.342,11.342,0,0,0,3.662,6.991q3.05,2.775,8.767,2.774a36.251,36.251,0,0,0,15.091-3.606l4.438,11.761a36.025,36.025,0,0,1-9.876,4.772A41.988,41.988,0,0,1,889.62,583.8ZM880.576,546.8h15.257v-1.443q0-4.827-1.5-7.3t-5.6-2.469q-4.44,0-6.187,3.08a19.5,19.5,0,0,0-2.191,7.85Z" transform="translate(-561.104 -496.085)"/><path class="cls-1" d="M919.469,582.639V571.264l6.991-1.775V535.811l-8.323-1.775v-11.43H944.88l.666,8.378a21.874,21.874,0,0,1,7.352-6.991,19.555,19.555,0,0,1,9.9-2.5q8.432,0,13.316,5.714T981,545.354v24.135l6.992,1.775v11.375h-32.18V571.264l5.659-1.775V545.3q0-4.827-1.942-6.852a7.329,7.329,0,0,0-5.548-2.025,9.544,9.544,0,0,0-8.045,3.883v29.184l4.993,1.775v11.375Z" transform="translate(-561.104 -496.085)"/><path class="cls-1" d="M990.876,582.639V571.264l8.488-2.052V515.393l-8.488-2.108V501.856h37.84a36.809,36.809,0,0,1,19.363,5.076,35.533,35.533,0,0,1,13.205,14.037,43.329,43.329,0,0,1,4.772,20.668v1.276a43.323,43.323,0,0,1-4.772,20.668,35.341,35.341,0,0,1-13.205,14.01,36.97,36.97,0,0,1-19.363,5.048Zm27.963-14.758h8.877q9.21,0,13.982-6.853t4.772-18.115v-1.332q0-11.207-4.772-18.059t-13.982-6.852h-8.877Z" transform="translate(-561.104 -496.085)"/><path class="cls-1" d="M1102.9,583.8a30.8,30.8,0,0,1-15.841-3.855,25.411,25.411,0,0,1-10.041-10.764,35.208,35.208,0,0,1-3.469-16.007v-1.11a34.781,34.781,0,0,1,3.469-15.868,25.87,25.87,0,0,1,10.013-10.791,30.192,30.192,0,0,1,15.758-3.911q9.264,0,15.785,3.884a25.76,25.76,0,0,1,9.987,10.763,34.949,34.949,0,0,1,3.466,15.923v1.11a35.121,35.121,0,0,1-3.466,15.952,25.728,25.728,0,0,1-9.987,10.792A30.092,30.092,0,0,1,1102.9,583.8Zm0-14.813q5.327,0,7.545-4.244t2.219-11.569v-1.11q0-7.1-2.246-11.4t-7.629-4.3q-5.382,0-7.574,4.3t-2.191,11.4v1.11q0,7.38,2.191,11.6T1102.9,568.99Z" transform="translate(-561.104 -496.085)"/><path class="cls-1" d="M1167.866,583.8a30.79,30.79,0,0,1-15.84-3.855,25.427,25.427,0,0,1-10.043-10.764,35.22,35.22,0,0,1-3.466-16.007v-1.11a34.794,34.794,0,0,1,3.466-15.868A25.883,25.883,0,0,1,1152,525.408a30.174,30.174,0,0,1,15.756-3.911q9.267,0,15.785,3.884a25.756,25.756,0,0,1,9.988,10.763,34.937,34.937,0,0,1,3.467,15.923v1.11a35.109,35.109,0,0,1-3.467,15.952,25.724,25.724,0,0,1-9.988,10.792A30.084,30.084,0,0,1,1167.866,583.8Zm0-14.813q5.326,0,7.547-4.244t2.219-11.569v-1.11q0-7.1-2.248-11.4t-7.629-4.3q-5.382,0-7.572,4.3t-2.192,11.4v1.11q0,7.38,2.192,11.6T1167.866,568.99Z" transform="translate(-561.104 -496.085)"/><path class="cls-1" d="M1225.958,583.8a19.96,19.96,0,0,1-12.123-3.716,23.251,23.251,0,0,1-7.768-10.459,42.234,42.234,0,0,1-2.691-15.729v-1.166a45.251,45.251,0,0,1,2.719-16.395,24.813,24.813,0,0,1,7.74-10.93,18.8,18.8,0,0,1,11.9-3.911,16.432,16.432,0,0,1,8.241,1.969,19.5,19.5,0,0,1,6.074,5.521v-19.7l-8.432-1.775v-11.43h27.906v73.4l6.993,1.775v11.375h-23.858l-1.443-7.435a19.52,19.52,0,0,1-6.436,6.408A17.063,17.063,0,0,1,1225.958,583.8Zm6.047-14.923a9.368,9.368,0,0,0,8.045-3.774V541.082a8.751,8.751,0,0,0-7.934-4.66,7.319,7.319,0,0,0-7.156,4.494q-2.109,4.494-2.109,11.817V553.9q0,7.158,2,11.069T1232.005,568.88Z" transform="translate(-561.104 -496.085)"/><path class="cls-1" d="M1269.067,582.639V571.264l7.1-1.775v-60.2l-8.434-1.775v-11.43h27.909v73.4l7.044,1.775v11.375Z" transform="translate(-561.104 -496.085)"/><path class="cls-1" d="M1334.927,583.8a30.206,30.206,0,0,1-15.4-3.8,26.645,26.645,0,0,1-10.209-10.4,30.417,30.417,0,0,1-3.634-14.924v-2.053a38.6,38.6,0,0,1,3.218-16.2,25.1,25.1,0,0,1,9.432-11.014q6.213-3.966,15.258-3.911,12.2,0,18.752,7.018t6.549,20.279v10.043h-33.014l-.055.388a11.342,11.342,0,0,0,3.662,6.991q3.049,2.775,8.766,2.774a36.255,36.255,0,0,0,15.092-3.606l4.437,11.761a36.018,36.018,0,0,1-9.875,4.772A41.992,41.992,0,0,1,1334.927,583.8Zm-9.045-37.006h15.258v-1.443q0-4.827-1.5-7.3t-5.6-2.469q-4.439,0-6.185,3.08a19.482,19.482,0,0,0-2.192,7.85Z" transform="translate(-561.104 -496.085)"/></svg>