<svg id="Layer_1" data-name="Layer 1" xmlns="http://www.w3.org/2000/svg" viewBox="0 0 797.791 87.83"><defs><style>.cls-1{fill:gray;}</style></defs><title>kd-logo-full-grey</title><path class="cls-1" d="M561.1,660.207V648.832l8.378-1.775V592.628l-8.378-1.775v-11.43h35.51v11.43l-7.657,1.775v23.858l25.3-24.912.056-.111-9.155-.61v-11.43h37.729v11.43l-7.6,1.609-22.47,21.915,24.745,33.068,8.267,1.387v11.375H606.878V648.832l8.1-.609h.11l-15.368-21.029-10.764,10.487v9.376l7.657,1.775v11.375Z" transform="translate(-561.104 -573.653)"/><path class="cls-1" d="M649.489,660.207V648.832l7.047-1.775V613.379l-8.378-1.775v-11.43H676.01v46.883L683,648.832v11.375Zm6.492-71.407V573.653H676.01V588.8Z" transform="translate(-561.104 -573.653)"/><path class="cls-1" d="M712.129,661.482q-9.433,0-14.342-5.021t-4.911-15.9V613.6h-7.49V600.174h7.49V585.36H712.24v14.814h9.821V613.6H712.24V640.51q0,2.942,1.332,4.105a5.364,5.364,0,0,0,3.662,1.166,18.075,18.075,0,0,0,2-.111q1-.111,2-.277l1.331,14.537A36.787,36.787,0,0,1,712.129,661.482Z" transform="translate(-561.104 -573.653)"/><path class="cls-1" d="M756.9,661.371a28.86,28.86,0,0,1-15.368-3.939,26.078,26.078,0,0,1-9.876-10.819,34.63,34.63,0,0,1-3.44-15.7v-1.277a34.034,34.034,0,0,1,3.578-15.923,26.739,26.739,0,0,1,9.987-10.764,28.287,28.287,0,0,1,14.953-3.884,37.55,37.55,0,0,1,14.731,2.608,42.16,42.16,0,0,1,9.681,5.437l-.333,18.92H766.336l-2.33-10.875a7.169,7.169,0,0,0-2.525-1.553,7.634,7.634,0,0,0-2.635-.61q-6.215,0-8.683,4.05t-2.469,12.594v1.277a25.025,25.025,0,0,0,1.415,9.348,10.392,10.392,0,0,0,3.579,4.855,7.9,7.9,0,0,0,4.438,1.443,7.742,7.742,0,0,0,5.41-1.747,11.365,11.365,0,0,0,2.968-5.133h16.312l.222.333a36.065,36.065,0,0,1-4.161,11.9,17.712,17.712,0,0,1-7.851,7.1Q765,661.372,756.9,661.371Z" transform="translate(-561.104 -573.653)"/><path class="cls-1" d="M788.03,660.207V648.832l7.047-1.775v-60.2l-8.434-1.775v-11.43h27.8v33.955a19.151,19.151,0,0,1,6.658-6.3,18.568,18.568,0,0,1,9.266-2.248,17.4,17.4,0,0,1,13.927,6.186q5.268,6.188,5.27,19.115v22.692l6.991,1.775v11.375h-32.18V648.832l5.714-1.775v-22.8q0-5.88-1.969-8.072a7.253,7.253,0,0,0-5.687-2.192q-5.383,0-7.99,3.718v29.35l5.715,1.775v11.375Z" transform="translate(-561.104 -573.653)"/><path class="cls-1" d="M889.62,661.371a30.209,30.209,0,0,1-15.4-3.8,26.642,26.642,0,0,1-10.209-10.4,30.419,30.419,0,0,1-3.635-14.925V630.19a38.609,38.609,0,0,1,3.219-16.2,25.1,25.1,0,0,1,9.432-11.013q6.213-3.966,15.258-3.912,12.2,0,18.753,7.019t6.547,20.279V636.4H880.576l-.056.389a11.337,11.337,0,0,0,3.662,6.99q3.05,2.777,8.767,2.775a36.253,36.253,0,0,0,15.091-3.607l4.438,11.762a36,36,0,0,1-9.876,4.771A41.987,41.987,0,0,1,889.62,661.371Zm-9.044-37.006h15.257v-1.443q0-4.827-1.5-7.3t-5.6-2.469q-4.44,0-6.187,3.079a19.5,19.5,0,0,0-2.191,7.851Z" transform="translate(-561.104 -573.653)"/><path class="cls-1" d="M919.469,660.207V648.832l6.991-1.775V613.379l-8.323-1.775v-11.43H944.88l.666,8.378a21.874,21.874,0,0,1,7.352-6.991,19.546,19.546,0,0,1,9.9-2.5q8.432,0,13.316,5.715T981,622.922v24.135l6.992,1.775v11.375h-32.18V648.832l5.659-1.775v-24.19q0-4.828-1.942-6.853a7.333,7.333,0,0,0-5.548-2.025,9.543,9.543,0,0,0-8.045,3.884v29.184l4.993,1.775v11.375Z" transform="translate(-561.104 -573.653)"/><path class="cls-1" d="M990.876,660.207V648.832l8.488-2.053V592.961l-8.488-2.108v-11.43h37.84a36.81,36.81,0,0,1,19.363,5.077,35.526,35.526,0,0,1,13.205,14.037,43.323,43.323,0,0,1,4.772,20.668v1.275a43.321,43.321,0,0,1-4.772,20.668,35.328,35.328,0,0,1-13.205,14.01,36.97,36.97,0,0,1-19.363,5.049Zm27.963-14.759h8.877q9.21,0,13.982-6.852t4.772-18.116v-1.331q0-11.207-4.772-18.06t-13.982-6.852h-8.877Z" transform="translate(-561.104 -573.653)"/><path class="cls-1" d="M1102.9,661.371a30.8,30.8,0,0,1-15.841-3.855,25.422,25.422,0,0,1-10.041-10.764,35.21,35.21,0,0,1-3.469-16.007v-1.11a34.781,34.781,0,0,1,3.469-15.868,25.858,25.858,0,0,1,10.013-10.791,30.183,30.183,0,0,1,15.758-3.912q9.264,0,15.785,3.884a25.769,25.769,0,0,1,9.987,10.764,34.949,34.949,0,0,1,3.466,15.923v1.11a35.117,35.117,0,0,1-3.466,15.951,25.723,25.723,0,0,1-9.987,10.792A30.082,30.082,0,0,1,1102.9,661.371Zm0-14.813q5.327,0,7.545-4.245t2.219-11.568v-1.11q0-7.1-2.246-11.4t-7.629-4.3q-5.382,0-7.574,4.3t-2.191,11.4v1.11q0,7.38,2.191,11.6T1102.9,646.558Z" transform="translate(-561.104 -573.653)"/><path class="cls-1" d="M1167.866,661.371a30.79,30.79,0,0,1-15.84-3.855,25.439,25.439,0,0,1-10.043-10.764,35.223,35.223,0,0,1-3.466-16.007v-1.11a34.794,34.794,0,0,1,3.466-15.868A25.872,25.872,0,0,1,1152,602.976a30.165,30.165,0,0,1,15.756-3.912q9.267,0,15.785,3.884a25.765,25.765,0,0,1,9.988,10.764,34.937,34.937,0,0,1,3.467,15.923v1.11a35.1,35.1,0,0,1-3.467,15.951,25.719,25.719,0,0,1-9.988,10.792A30.075,30.075,0,0,1,1167.866,661.371Zm0-14.813q5.326,0,7.547-4.245t2.219-11.568v-1.11q0-7.1-2.248-11.4t-7.629-4.3q-5.382,0-7.572,4.3t-2.192,11.4v1.11q0,7.38,2.192,11.6T1167.866,646.558Z" transform="translate(-561.104 -573.653)"/><path class="cls-1" d="M1225.958,661.371a19.954,19.954,0,0,1-12.123-3.717,23.245,23.245,0,0,1-7.768-10.459,42.229,42.229,0,0,1-2.691-15.728V630.3a45.247,45.247,0,0,1,2.719-16.4,24.807,24.807,0,0,1,7.74-10.93,18.791,18.791,0,0,1,11.9-3.912,16.422,16.422,0,0,1,8.241,1.97,19.488,19.488,0,0,1,6.074,5.521v-19.7l-8.432-1.775v-11.43h27.906v73.4l6.993,1.775v11.375h-23.858l-1.443-7.436a19.514,19.514,0,0,1-6.436,6.409A17.063,17.063,0,0,1,1225.958,661.371Zm6.047-14.924a9.37,9.37,0,0,0,8.045-3.773V618.65a8.75,8.75,0,0,0-7.934-4.661,7.319,7.319,0,0,0-7.156,4.494q-2.109,4.494-2.109,11.818v1.166q0,7.157,2,11.068T1232.005,646.447Z" transform="translate(-561.104 -573.653)"/><path class="cls-1" d="M1269.067,660.207V648.832l7.1-1.775v-60.2l-8.434-1.775v-11.43h27.909v73.4l7.044,1.775v11.375Z" transform="translate(-561.104 -573.653)"/><path class="cls-1" d="M1334.927,661.371a30.206,30.206,0,0,1-15.4-3.8,26.642,26.642,0,0,1-10.209-10.4,30.418,30.418,0,0,1-3.634-14.925V630.19a38.609,38.609,0,0,1,3.218-16.2,25.1,25.1,0,0,1,9.432-11.013q6.213-3.966,15.258-3.912,12.2,0,18.752,7.019t6.549,20.279V636.4h-33.014l-.055.389a11.337,11.337,0,0,0,3.662,6.99q3.049,2.777,8.766,2.775a36.257,36.257,0,0,0,15.092-3.607l4.437,11.762a35.989,35.989,0,0,1-9.875,4.771A41.992,41.992,0,0,1,1334.927,661.371Zm-9.045-37.006h15.258v-1.443q0-4.827-1.5-7.3t-5.6-2.469q-4.439,0-6.185,3.079a19.487,19.487,0,0,0-2.192,7.851Z" transform="translate(-561.104 -573.653)"/></svg>